<svg width="96" height="96" viewBox="0 0 96 96" fill="none" xmlns="http://www.w3.org/2000/svg">
  <defs>
    <linearGradient id="bgGradient" x1="12" y1="88" x2="84" y2="12" gradientUnits="userSpaceOnUse">
      <stop offset="0" stop-color="#FF3D5A" />
      <stop offset="0.5" stop-color="#DA1B60" />
      <stop offset="1" stop-color="#892CDC" />
    </linearGradient>
    <linearGradient id="symbolGradient" x1="32" y1="20" x2="68" y2="78" gradientUnits="userSpaceOnUse">
      <stop offset="0" stop-color="#FFFFFF" stop-opacity="0.95" />
      <stop offset="1" stop-color="#FFE4EC" stop-opacity="0.85" />
    </linearGradient>
    <filter id="glow" x="-30" y="-30" width="156" height="156" filterUnits="userSpaceOnUse" color-interpolation-filters="sRGB">
      <feGaussianBlur stdDeviation="10" result="blur" />
      <feBlend in="SourceGraphic" in2="blur" mode="screen" />
    </filter>
  </defs>
  <rect x="8" y="8" width="80" height="80" rx="24" fill="url(#bgGradient)" />
  <g filter="url(#glow)">
    <path
      fill="url(#symbolGradient)"
      d="M28.5 67L42.4 29.8C43.6 26.4 45.6 24.8 48.1 24.8C50.6 24.8 52.6 26.4 53.8 29.8L59.9 46.6L66 29.8C67.1 26.4 69.2 24.8 71.7 24.8C74.1 24.8 76.2 26.4 77.3 29.8L87.5 58.6C88.2 60.6 87.5 62.1 85.5 62.8C83.5 63.5 82 62.8 81.3 60.8L71.7 32.1L64.4 52.9C63.2 56.3 61.3 57.9 58.8 57.9C56.3 57.9 54.3 56.3 53.1 52.9L48.1 38.8L37.1 68.1C36 71.1 34.2 72.4 31.8 71.6C29.4 70.9 28.2 69.1 28.5 67Z"
    />
  </g>
</svg>
